<svg width="20" height="19" viewBox="0 0 20 19" fill="none" xmlns="http://www.w3.org/2000/svg">
  <path d="M10.8758 18.225C10.3147 17.9318 9.68275 16.6064 9.25836 15.5975C9.08407 15.5806 8.91309 15.5164 8.76523 15.4034C8.33323 15.0732 7.96218 14.3178 8.15793 13.7206C8.39026 13.0119 9.34243 11.9217 9.88041 11.3264C9.87223 11.2967 9.86399 11.2667 9.85569 11.2361C8.26041 12.5889 5.42734 14.7139 1.53154 13.4901C0.632043 13.2075 0.179977 12.6173 0.259432 12.0451C0.338886 11.473 0.89722 10.8666 1.53262 10.5663C2.72391 10.0033 4.02686 9.63284 5.42974 9.91827C6.25337 10.0858 7.34211 10.6546 8.10952 11.0861C8.07988 10.9997 8.05071 10.9049 8.02195 10.8024C6.61127 9.69248 4.14748 7.41952 3.88547 4.27653C3.76378 2.81679 3.57952 0.853862 4.58996 0.319095C4.99423 0.105136 5.68127 0.383671 6.16479 1.22721C6.96217 2.61829 7.39177 8.55607 8.02195 10.8024C8.36208 11.07 8.64098 11.27 8.81305 11.3983C8.84955 11.3335 8.8868 11.2563 8.92484 11.1662C9.22112 10.4644 9.63236 8.86315 10.7795 7.93209C11.855 7.05911 13.4193 6.00674 14.984 6.75004C16.8259 7.62505 18.6113 9.1631 19.1145 11.0997C19.3342 11.945 19.3088 12.6791 18.882 13.2583C17.985 14.4754 16.8079 15.5545 15.5232 15.3502C14.045 15.1151 10.1211 12.05 10.5537 13.6802C10.653 14.0544 12.0287 15.07 11.9131 16.4723C11.8515 17.2191 11.2878 18.4403 10.8758 18.225Z" fill="#BDA369"/>
  <path d="M8.88371 14.6685C9.19978 15.4697 10.1048 17.8221 10.8758 18.225C11.2878 18.4403 11.8515 17.2191 11.9131 16.4723C12.0287 15.07 10.653 14.0544 10.5537 13.6802C10.1211 12.05 14.045 15.1151 15.5232 15.3502C16.8079 15.5545 17.985 14.4754 18.882 13.2583C19.3088 12.6791 19.3342 11.945 19.1145 11.0997C18.6113 9.1631 16.8259 7.62505 14.984 6.75004C13.4193 6.00674 11.855 7.05911 10.7795 7.93209C9.63236 8.86315 9.22112 10.4644 8.92484 11.1662C7.67958 14.1158 7.28533 3.18207 6.16479 1.22721C5.68127 0.383671 4.99423 0.105136 4.58996 0.319095C3.57952 0.853862 3.76378 2.81679 3.88547 4.27653C4.23481 8.46707 8.49819 11.111 8.96102 11.5138C9.5528 12.0289 7.00586 10.239 5.42974 9.91827C4.02686 9.63283 2.72391 10.0033 1.53262 10.5663C0.89722 10.8666 0.338886 11.473 0.259432 12.0451C0.179977 12.6173 0.632043 13.2075 1.53154 13.4901C5.66969 14.79 8.60878 12.3115 10.139 10.9935C10.7864 10.4359 8.53318 12.576 8.15793 13.7206C7.96218 14.3178 8.33323 15.0732 8.76523 15.4034C9.19723 15.7335 9.82659 15.6475 10.1594 15.1792C10.4922 14.7109 10.5094 13.8628 10.383 13.1463C10.2565 12.4297 9.98593 11.8704 9.65499 10.434" stroke="#BDA369" stroke-width="0.5" stroke-linecap="round" stroke-linejoin="round"/>
</svg>