<svg width="24" height="38" viewBox="0 0 24 38" fill="none" xmlns="http://www.w3.org/2000/svg">
  <path d="M9.77159 35.3399C10.1162 29.0563 11.757 22.2255 12.3682 20.9104C12.3793 20.5231 12.4618 19.9489 12.6751 19.2326C12.789 18.8496 12.9026 18.4704 13.0165 18.0952C12.4491 18.4018 11.7389 18.7188 10.538 19.1915C5.44541 21.1006 1.62414 22.2149 0.612749 21.8269C0.258353 21.4658 0.108584 20.7498 0.381862 20.152C0.941775 18.9272 2.34205 16.3077 5.78759 15.3095C6.64675 15.0606 7.6647 14.8399 8.6546 14.8508C8.00946 14.0007 7.39638 12.9495 6.93227 11.702C5.96491 9.10179 5.70783 6.65572 6.156 4.51446C6.47415 2.99442 6.89956 1.49984 8.02964 0.677137C8.56223 0.289411 9.18538 0.175887 9.76197 0.316229C10.3386 0.45657 11.0334 0.739696 11.297 1.5267C12.0425 3.75262 13.581 9.60717 14.2167 14.4205C15.7861 10.0772 17.7779 6.62295 21.5982 4.924C22.6981 4.43487 23.8173 4.69651 23.5691 5.38451C22.8622 7.34442 19.0413 11.8532 15.2888 16.763C14.1996 18.1881 14.827 17.538 15.4784 17.6145C16.7726 17.7665 18.5044 18.7203 19.7396 20.7935C20.9763 22.8691 21.7918 25.0162 21.8088 27.0342C21.8244 28.8729 21.5749 30.4237 20.6302 31.1242C20.1464 31.483 19.5332 31.6905 18.9588 31.5971C18.3844 31.5037 17.7427 31.2157 17.3801 30.5417C16.7254 29.3248 15.8877 27.8428 15.1684 26.4157C15.1672 26.4241 15.1661 26.4326 15.1649 26.441C14.7108 29.743 14.2476 36.3609 11.1329 37.3429C10.5511 37.5263 9.6531 37.5002 9.77159 35.3399Z" fill="#BDA369"/>
  <path d="M12.3821 20.8812C11.7822 22.121 10.1188 29.0082 9.77159 35.3399C9.65311 37.5002 10.5511 37.5263 11.1329 37.3429C14.2476 36.3609 14.7108 29.743 15.1649 26.441C15.3885 24.8151 15.2594 23.3235 14.9927 22.1031C14.8611 21.5007 14.4148 21.0404 14.1738 21.1137C12.2998 21.6835 15.5527 27.145 17.3801 30.5417C17.7427 31.2157 18.3844 31.5037 18.9588 31.5971C19.5332 31.6905 20.1464 31.483 20.6302 31.1242C21.5749 30.4237 21.8244 28.8729 21.8088 27.0342C21.7918 25.0162 20.9763 22.8691 19.7396 20.7935C18.5044 18.7203 16.7726 17.7665 15.4784 17.6145C14.827 17.538 14.1996 18.1881 15.2888 16.763C19.0413 11.8532 22.8622 7.34442 23.5691 5.38451C23.8173 4.69651 22.6981 4.43487 21.5982 4.924C16.4507 7.21317 14.6228 12.6891 12.6751 19.2326C12.2754 20.5752 12.3348 21.4189 12.4637 21.4675C17.0174 23.1844 12.7175 5.76812 11.297 1.5267C11.0334 0.739696 10.3386 0.45657 9.76197 0.316229C9.18538 0.175887 8.56223 0.289411 8.02964 0.677137C6.89956 1.49984 6.47415 2.99442 6.156 4.51446C5.70783 6.65572 5.96491 9.10179 6.93227 11.702C8.25326 15.2528 10.7811 17.2127 11.82 17.4753C12.1764 17.5654 12.0238 16.4071 11.3864 15.8126C9.89429 14.4209 7.51864 14.808 5.78759 15.3095C2.34205 16.3077 0.941775 18.9272 0.381862 20.152C0.108584 20.7498 0.258353 21.4658 0.612748 21.8269C1.62414 22.2149 5.44541 21.1006 10.538 19.1915C12.4861 18.4246 13.1428 18.0677 13.9937 17.4996" stroke="#BDA369" stroke-width="0.5" stroke-linecap="round" stroke-linejoin="round"/>
</svg>