<svg width="27" height="37" viewBox="0 0 27 37" fill="none" xmlns="http://www.w3.org/2000/svg">
  <path d="M20.436 36.212C19.4397 35.7504 14.0315 27.5348 13.7458 20.6403C13.5339 20.586 13.3066 20.4975 13.0717 20.3633C13.0272 20.3378 12.9827 20.3123 12.9381 20.2866C9.98991 24.7371 6.68261 28.7876 3.8376 30.1335C3.17265 30.1219 2.51317 29.9494 1.92931 29.6114C1.34546 29.2734 0.852176 28.7846 0.56497 28.0217C0.277765 27.2588 0.0365967 26.1681 0.55051 25.2339C1.66073 23.2158 3.06295 21.1636 4.80541 20.4291C6.12577 19.8726 8.36221 19.0677 10.4127 18.7256C5.09448 15.2121 0.310062 10.5845 0.979636 7.80227C1.14409 7.11894 1.55711 6.09043 2.2087 6.25642C4.06917 6.73037 9.48657 11.8369 13.0924 15.3322C12.9587 14.7587 12.8268 14.1285 12.6972 13.4612C10.8257 10.397 8.85593 6.07296 9.33495 1.98751C9.45065 1.00067 9.94206 -0.0351723 10.2698 0.322138C10.8291 0.931922 11.6957 8.30541 12.6972 13.4612C13.4041 14.6187 14.097 15.5964 14.6386 16.3136C14.8734 16.6245 15.0797 16.8865 15.2465 17.0929C15.6515 15.8186 16.3341 13.7264 17.8381 12.8983C18.616 12.47 19.5639 12.3642 20.2459 12.6959C21.4881 13.3001 25.2753 16.064 26.1627 20.2314C26.3165 20.9539 26.2792 21.5843 25.9538 22.0487C25.6284 22.5132 25.0204 22.9353 24.2669 22.7849C22.5918 22.4506 19.9481 20.7093 15.8651 18.4745C15.5045 18.2771 15.1395 18.1257 14.8725 18.0796C14.7499 18.3028 14.6274 18.4234 14.5054 18.4538C14.5504 18.5735 14.6339 18.7242 14.7636 18.9102C17.5293 22.8763 22.9058 28.0963 21.8276 34.1386C21.6003 35.4126 20.9839 36.4658 20.436 36.212Z" fill="#BDA369"/>
  <path d="M14.657 16.3136C14.5348 16.3136 14.4126 16.3136 14.2483 16.7831C11.7255 23.9909 19.2431 35.6593 20.436 36.212C20.9839 36.4658 21.6003 35.4126 21.8276 34.1386C22.9058 28.0963 17.5293 22.8763 14.7636 18.9102C13.9606 17.7586 14.9276 17.9614 15.8651 18.4745C19.9481 20.7093 22.5918 22.4506 24.2669 22.7849C25.0204 22.9353 25.6284 22.5132 25.9538 22.0487C26.2792 21.5843 26.3165 20.9539 26.1627 20.2314C25.2753 16.064 21.4881 13.3001 20.2459 12.6959C19.5639 12.3642 18.616 12.47 17.8381 12.8983C16.1944 13.8033 15.5317 16.2181 15.1404 17.4252C13.1918 23.4345 11.2545 1.39571 10.2698 0.322138C9.94206 -0.0351723 9.45065 1.00067 9.33495 1.98751C8.49259 9.17182 15.2228 17.0939 15.6746 17.6058C20.105 22.6249 5.5207 7.10014 2.2087 6.25642C1.55711 6.09043 1.14409 7.11894 0.979636 7.80227C0.199377 11.0444 6.8253 16.7925 13.0717 20.3633C14.1631 20.9871 15.0914 20.6222 15.0706 20.4335C14.6799 16.9007 7.63664 19.2357 4.80541 20.4291C3.06295 21.1636 1.66073 23.2158 0.55051 25.2339C0.0365967 26.1681 0.277765 27.2588 0.56497 28.0217C0.852176 28.7846 1.34546 29.2734 1.92931 29.6114C2.51317 29.9494 3.17265 30.1219 3.8376 30.1335C6.79176 28.736 10.2444 24.4223 13.2758 19.7727C13.9197 18.8443 14.3719 18.3496 15.1169 17.8399" stroke="#BDA369" stroke-width="0.5" stroke-linecap="round" stroke-linejoin="round"/>
</svg>